<?xml version="1.0" encoding="UTF-8"?>
<svg id="Capa_2" xmlns="http://www.w3.org/2000/svg" viewBox="0 0 164.86 51.16">
  <defs>
    <style>
      .cls-1 {
        fill: #999;
      }

      .cls-2 {
        fill: #f15a24;
      }
    </style>
  </defs>
  <g id="Capa_1-2" data-name="Capa_1">
    <path class="cls-1" d="M7.91,50.24c1.06,0,1.82-.68,1.99-1.65h-.98c-.12.43-.49.73-.99.73-.58,0-1.02-.43-1.02-1.09s.44-1.1,1.01-1.1c.48,0,.87.33.98.74h.98c-.18-.94-.94-1.63-1.99-1.63-1.14,0-1.97.81-1.97,1.99s.82,2.01,1.98,2.01"/>
    <path class="cls-1" d="M43.12,50.19h.94v-3.04h1.1v-.85h-3.16v.85h1.11v3.04ZM35.55,48.52c0-.39.28-.66.67-.66s.67.27.67.66-.27.67-.67.67-.67-.28-.67-.67ZM34.9,51.16h1.56c.83,0,1.43-.58,1.43-1.41v-2.72h-.92v.3c-.23-.23-.54-.36-.92-.36-.83,0-1.45.64-1.45,1.55s.61,1.51,1.45,1.51c.38,0,.69-.13.92-.35v.09c0,.32-.23.54-.55.54h-1.52v.85ZM30.11,50.19h.95v-1.78c0-.35.23-.59.57-.59s.57.24.57.59v1.78h.94v-1.86c0-.8-.54-1.36-1.26-1.36-.47,0-.76.23-.86.45v-.39h-.93v3.16ZM27.41,47.15h.95v-.85h-.95v.85ZM27.41,50.19h.95v-2.64h-.95v2.64ZM24.43,50.19h.94v-2.31h.58v-.85h-.58v-.73h-.94v.73h-.57v.85h.57v2.31ZM20.01,48.6c0-.45.29-.74.71-.74s.71.3.71.74-.3.75-.71.75-.71-.3-.71-.75ZM20.55,50.24c.39,0,.71-.15.94-.4v.34h.9v-3.16h-.9v.34c-.23-.25-.55-.39-.94-.39-.83,0-1.47.66-1.47,1.63s.64,1.64,1.47,1.64ZM15.37,48.27c.11-.3.36-.49.7-.49s.59.19.7.49h-1.4ZM16.03,50.24c.79,0,1.4-.44,1.62-1.15h-.94c-.12.23-.37.36-.65.36-.36,0-.68-.23-.74-.59h2.38c.12-1.06-.56-1.88-1.63-1.88-.98,0-1.66.66-1.66,1.64s.67,1.63,1.62,1.63ZM11.41,50.19h.95v-1.48c0-.49.31-.79.79-.79v-.94c-.41.02-.71.28-.84.49v-.44h-.9v3.16Z"/>
    <path class="cls-1" d="M73,50.19h.95v-1.48c0-.49.31-.79.79-.79v-.94c-.41.02-.71.28-.84.49v-.44h-.9v3.16ZM69.09,48.27c.11-.3.36-.49.7-.49s.59.19.7.49h-1.4ZM69.75,50.24c.79,0,1.4-.44,1.62-1.15h-.94c-.12.23-.37.36-.65.36-.36,0-.68-.23-.74-.59h2.38c.12-1.06-.56-1.88-1.63-1.88-.98,0-1.66.66-1.66,1.64s.67,1.63,1.62,1.63ZM63.64,50.19h.95v-1.78c0-.35.23-.59.57-.59s.57.24.57.59v1.78h.94v-1.86c0-.8-.54-1.36-1.26-1.36-.45,0-.72.21-.83.41v-1.09h-.95v3.89ZM60.66,50.19h.94v-2.31h.58v-.85h-.58v-.73h-.94v.73h-.57v.85h.57v2.31ZM56.47,48.27c.11-.3.36-.49.7-.49s.59.19.7.49h-1.4ZM57.13,50.24c.79,0,1.4-.44,1.62-1.15h-.94c-.12.23-.37.36-.65.36-.36,0-.68-.23-.74-.59h2.38c.12-1.06-.56-1.88-1.63-1.88-.98,0-1.66.66-1.66,1.64s.67,1.63,1.62,1.63ZM51.61,48.52c0-.39.28-.66.67-.66s.67.27.67.66-.27.67-.67.67-.67-.28-.67-.67ZM50.96,51.16h1.56c.83,0,1.43-.58,1.43-1.41v-2.72h-.92v.3c-.23-.23-.55-.36-.92-.36-.83,0-1.45.64-1.45,1.55s.61,1.51,1.45,1.51c.38,0,.69-.13.92-.35v.09c0,.32-.23.54-.55.54h-1.52v.85ZM46.92,48.6c0-.45.3-.75.72-.75s.72.31.72.75-.3.76-.72.76-.72-.31-.72-.76ZM47.64,50.24c.98,0,1.66-.66,1.66-1.64s-.68-1.63-1.66-1.63-1.66.66-1.66,1.63.68,1.64,1.66,1.64Z"/>
    <path class="cls-1" d="M82.96,50.24c1.17,0,1.91-.85,1.91-2.03h-2.07v.66h1.05c-.11.3-.45.48-.89.48-.62,0-1.05-.45-1.05-1.11s.42-1.1,1.02-1.1c.46,0,.82.28.95.7h.97c-.18-.94-.96-1.59-1.94-1.59-1.15,0-1.97.81-1.97,1.99s.83,2.01,2.02,2.01M76.51,50.79l.51-1.39-.9-.29-.41,1.42.8.26Z"/>
    <path class="cls-1" d="M115.92,50.19h.94v-3.04h1.1v-.85h-3.16v.85h1.11v3.04ZM108.35,48.52c0-.39.28-.66.67-.66s.67.27.67.66-.27.67-.67.67-.67-.28-.67-.67ZM107.7,51.16h1.56c.83,0,1.43-.58,1.43-1.41v-2.72h-.92v.3c-.23-.23-.54-.36-.92-.36-.83,0-1.45.64-1.45,1.55s.61,1.51,1.45,1.51c.38,0,.69-.13.92-.35v.09c0,.32-.23.54-.55.54h-1.52v.85ZM102.91,50.19h.95v-1.78c0-.35.23-.59.57-.59s.57.24.57.59v1.78h.94v-1.86c0-.8-.54-1.36-1.26-1.36-.47,0-.76.23-.86.45v-.39h-.93v3.16ZM100.21,47.15h.95v-.85h-.95v.85ZM100.21,50.19h.95v-2.64h-.95v2.64ZM94.88,50.19h.9l.59-1.81.58,1.81h.9l.95-3.16h-.97l-.49,1.81-.52-1.81h-.92l-.51,1.81-.49-1.81h-.97l.96,3.16ZM90.32,48.6c0-.45.3-.75.72-.75s.72.31.72.75-.3.76-.72.76-.72-.31-.72-.76ZM91.04,50.24c.98,0,1.66-.66,1.66-1.64s-.68-1.63-1.66-1.63-1.66.66-1.66,1.63.68,1.64,1.66,1.64ZM86.38,50.19h.95v-1.48c0-.49.31-.79.79-.79v-.94c-.41.02-.71.28-.84.49v-.44h-.9v3.16Z"/>
    <path class="cls-1" d="M145.8,50.19h.95v-1.48c0-.49.31-.79.79-.79v-.94c-.41.02-.71.28-.84.49v-.44h-.9v3.16ZM141.89,48.27c.11-.3.36-.49.71-.49s.59.19.7.49h-1.4ZM142.55,50.24c.79,0,1.4-.44,1.62-1.15h-.94c-.12.23-.37.36-.65.36-.36,0-.68-.23-.74-.59h2.38c.12-1.06-.56-1.88-1.63-1.88-.98,0-1.66.66-1.66,1.64s.67,1.63,1.62,1.63ZM136.44,50.19h.95v-1.78c0-.35.23-.59.57-.59s.57.24.57.59v1.78h.94v-1.86c0-.8-.54-1.36-1.26-1.36-.45,0-.72.21-.83.41v-1.09h-.95v3.89ZM133.46,50.19h.94v-2.31h.58v-.85h-.58v-.73h-.94v.73h-.57v.85h.57v2.31ZM129.27,48.27c.11-.3.36-.49.7-.49s.59.19.7.49h-1.4ZM129.93,50.24c.79,0,1.4-.44,1.62-1.15h-.95c-.12.23-.37.36-.65.36-.36,0-.68-.23-.74-.59h2.38c.12-1.06-.56-1.88-1.63-1.88-.98,0-1.66.66-1.66,1.64s.67,1.63,1.62,1.63ZM124.41,48.52c0-.39.28-.66.67-.66s.67.27.67.66-.27.67-.67.67-.67-.28-.67-.67ZM123.76,51.16h1.56c.83,0,1.43-.58,1.43-1.41v-2.72h-.92v.3c-.23-.23-.54-.36-.92-.36-.83,0-1.45.64-1.45,1.55s.61,1.51,1.45,1.51c.38,0,.69-.13.92-.35v.09c0,.32-.23.54-.55.54h-1.52v.85ZM119.72,48.6c0-.45.3-.75.72-.75s.72.31.72.75-.3.76-.72.76-.72-.31-.72-.76ZM120.44,50.24c.98,0,1.66-.66,1.66-1.64s-.68-1.63-1.66-1.63-1.66.66-1.66,1.63.68,1.64,1.66,1.64Z"/>
    <path class="cls-1" d="M54.16,15.64h5.09c.17,0,.3.13.31.3.12,1.51,1.17,2.64,3.1,2.64,1.46,0,2.51-.66,2.51-1.91,0-1.57-1.74-2.2-3.97-3.2-3.54-1.54-6.88-3.11-6.88-7.05s3.51-6.42,7.91-6.42c4.66,0,7.67,2.93,7.73,7.25,0,.08-.06.15-.14.15h-5.28c0-1.48-.91-2.4-2.31-2.4-1.28,0-2.2.77-2.2,1.74,0,1.26,1.46,1.66,4.62,2.91,3.37,1.31,6.31,2.91,6.31,6.88,0,4.37-3.42,6.94-8.19,6.94-5.18,0-8.76-3.08-8.93-7.5,0-.18.14-.32.31-.32"/>
    <polygon class="cls-1" points="74.18 9.59 70.81 9.59 70.81 4.59 74.18 4.59 74.18 .31 79.72 .31 79.72 4.59 83.08 4.59 83.08 9.59 79.72 9.59 79.72 23.15 74.18 23.15 74.18 9.59"/>
    <path class="cls-1" d="M81.94,13.84c0-5.68,3.77-9.56,8.62-9.56,2.28,0,4.17.86,5.51,2.31v-2h5.28v18.55h-5.28v-2.03c-1.34,1.48-3.23,2.34-5.51,2.34-4.85,0-8.62-3.91-8.62-9.62M91.56,18.27c2.43,0,4.17-1.77,4.17-4.4s-1.74-4.37-4.17-4.37-4.17,1.74-4.17,4.37,1.71,4.4,4.17,4.4Z"/>
    <path class="cls-1" d="M103.06,4.59h5.31v2.6c.71-1.23,2.51-2.77,4.91-2.88v5.51c-2.85,0-4.65,1.8-4.65,4.65v8.68h-5.57V4.59Z"/>
    <path class="cls-1" d="M113.12,16.65h5.31c0,1.37,1.11,2.31,2.74,2.31,1.06,0,2.28-.43,2.28-1.4,0-1.14-1.46-1.34-3.54-1.88-2.37-.66-6.28-1.23-6.28-5.45,0-3.57,2.83-5.91,6.91-5.91s7.25,2.57,7.25,6.22h-5.17c0-.89-.77-1.48-1.83-1.48-.91,0-1.71.46-1.71,1.26,0,.94,1.23,1.14,3.42,1.71,2.91.8,6.14,1.77,6.14,5.59s-3.14,5.97-7.71,5.97-7.82-2.8-7.82-6.94"/>
    <path class="cls-1" d="M133.88,20.25v-1.78h.03l.57,1.78h.55l.57-1.78h.03v1.78h.61v-2.54h-.88l-.6,1.89-.6-1.89h-.87v2.54h.58ZM132.22,20.25v-1.99h.78v-.55h-2.17v.55h.77v1.99h.63Z"/>
    <path class="cls-2" d="M53.63,24.57h9.41c3.5,0,5.96,2.05,5.96,4.98,0,1.76-1.1,3.24-2.74,4.1,2.05.79,3.46,2.45,3.46,4.6,0,3.17-2.55,5.39-6.2,5.39h-9.89v-19.07ZM62.57,31.84c.97,0,1.65-.7,1.62-1.71-.03-.87-.76-1.56-1.64-1.56h-4.27v3.26h4.29ZM62.88,39.63c1.17,0,1.98-.81,1.98-1.98,0-1.11-.94-2-2.05-2h-4.52v3.98h4.6Z"/>
    <path class="cls-2" d="M70.19,28.14h4.43v2.17c.6-1.02,2.1-2.31,4.1-2.41v4.6c-2.38,0-3.88,1.5-3.88,3.88v7.24h-4.65v-15.49Z"/>
    <path class="cls-2" d="M77.77,35.86c0-4.74,3.15-7.98,7.2-7.98,1.91,0,3.48.72,4.6,1.93v-1.67h4.41v15.49h-4.41v-1.69c-1.12,1.24-2.69,1.95-4.6,1.95-4.05,0-7.2-3.26-7.2-8.03M85.8,39.56c2.03,0,3.48-1.48,3.48-3.67s-1.45-3.65-3.48-3.65-3.48,1.45-3.48,3.65,1.43,3.67,3.48,3.67Z"/>
    <path class="cls-2" d="M95.4,28.14h4.53v1.93c.48-1.05,1.91-2.19,4.19-2.19,3.53,0,6.15,2.72,6.15,6.65v9.1h-4.62v-8.72c0-1.72-1.14-2.88-2.81-2.88s-2.79,1.17-2.79,2.88v8.72h-4.65v-15.49Z"/>
    <path class="cls-2" d="M110.27,35.89c0-4.74,3.15-8.01,7.22-8.01,1.79,0,3.26.62,4.36,1.74v-5.05h4.53v19.07h-4.22v-1.72c-1.14,1.24-2.74,1.98-4.67,1.98-4.08,0-7.22-3.24-7.22-8.01M118.3,39.53c2.03,0,3.48-1.48,3.48-3.67s-1.45-3.62-3.48-3.62-3.48,1.45-3.48,3.62,1.43,3.67,3.48,3.67Z"/>
    <rect class="cls-2" x="127.81" y="30.69" width="4.65" height="12.94"/>
    <path class="cls-2" d="M133.88,28.14h4.53v1.93c.48-1.05,1.91-2.19,4.19-2.19,3.53,0,6.15,2.72,6.15,6.65v9.1h-4.62v-8.72c0-1.72-1.14-2.88-2.81-2.88s-2.79,1.17-2.79,2.88v8.72h-4.65v-15.49Z"/>
    <path class="cls-2" d="M150.21,46.31c0-1.15.93-2.08,2.09-2.08h5.35c1.57,0,2.69-1.07,2.69-2.62v-.45c-1.12,1.1-2.65,1.72-4.48,1.72-4.1,0-7.1-3.05-7.1-7.39s3-7.6,7.08-7.6c1.83,0,3.38.64,4.5,1.74v-1.48h4.53v13.35c0,4.05-2.95,6.89-7.01,6.91h-7.65v-2.09ZM156.64,38.77c1.83,0,3.29-1.46,3.29-3.29,0-1.91-1.33-3.24-3.26-3.24-1.83,0-3.28,1.44-3.27,3.26.01,1.91,1.36,3.26,3.24,3.27Z"/>
    <path class="cls-2" d="M127.87,29.44h5.13c.34,0,.62-.28.62-.62v-5.07c0-.33-.27-.6-.6-.6h-4.51c-.35,0-.63.28-.63.63v5.66Z"/>
    <path class="cls-2" d="M38.44,19.01l4.75-4.7,1.51,1.51,1.54-5.73,1.54-5.73-5.73,1.54-5.73,1.54,1.94,1.94-9.13,8.93h-15.93c-3.31,0-5.38-1.95-5.38-5.21s2.01-5.26,5.44-5.26h10.69l-7.69,7.06h10.41L42.01.31H13.25C4.67.31,0,5.46,0,12.38s5.03,12.24,13.13,12.24h9.52L3.54,43.32h29.35c8.99,0,13.37-5.38,13.37-12.6,0-6.34-2.7-10.21-7.81-11.71M32.89,35.8h-11.43l11.31-11.18h.12c4.02,0,6.27,1.89,6.27,5.56,0,3.37-2.25,5.62-6.27,5.62Z"/>
  </g>
</svg>